<svg version="1.0" xmlns="http://www.w3.org/2000/svg"
 width="245.000000pt" height="85.000000pt" viewBox="0 0 245.000000 85.000000"
 preserveAspectRatio="xMidYMid meet">

<g transform="translate(0.000000,85.000000) scale(0.100000,-0.100000)" fill="#d81f26" stroke="none">
<path d="M100 439 l0 -311 31 6 c17 3 38 6 45 6 11 0 14 42 16 213 l3 212 55
-203 54 -204 46 7 c25 4 48 9 52 12 5 2 8 132 8 289 l0 284 -45 0 -45 0 -2
-162 -3 -163 -45 163 -45 162 -62 0 -63 0 0 -311z"/>
<path d="M470 464 l0 -286 43 6 c23 3 81 8 130 12 l87 7 0 44 0 45 -80 -7 -80
-7 0 81 0 81 34 0 c18 0 48 3 65 6 29 6 31 10 31 47 l0 40 -65 -6 -65 -6 0 74
0 75 80 0 80 0 0 40 0 40 -130 0 -130 0 0 -286z"/>
<path d="M760 710 l0 -40 50 0 50 0 0 -230 0 -230 34 0 c69 0 66 -11 66 236
l0 223 48 3 c47 3 47 3 50 41 l3 37 -150 0 -151 0 0 -40z"/>
<path d="M1090 485 l0 -265 50 0 50 0 0 115 0 115 60 0 60 0 0 40 0 40 -60 0
-60 0 0 70 0 69 78 3 77 3 3 38 3 37 -130 0 -131 0 0 -265z"/>
<path d="M1390 486 l0 -263 92 -7 c50 -3 106 -6 125 -6 34 0 34 0 31 43 l-3
42 -72 3 -73 3 0 224 0 225 -50 0 -50 0 0 -264z"/>
<path d="M1670 556 c0 -299 16 -344 131 -367 48 -10 62 -9 92 6 62 29 67 52
67 319 l0 236 -44 0 -45 0 -3 -230 c-2 -192 -6 -232 -18 -240 -21 -13 -33 -12
-56 4 -18 13 -19 30 -22 240 l-3 226 -50 0 -49 0 0 -194z"/>
<path d="M2010 746 c0 -2 20 -59 45 -127 25 -68 45 -131 45 -141 0 -9 -22 -79
-49 -156 -54 -153 -54 -152 13 -152 32 0 32 0 66 105 19 58 37 105 40 105 3 0
21 -53 40 -117 l35 -117 45 -8 c25 -4 48 -7 52 -5 4 1 -17 77 -46 169 l-53
166 44 124 c24 67 46 131 49 141 5 16 0 18 -42 15 l-47 -3 -31 -92 c-17 -50
-33 -94 -36 -97 -4 -3 -21 40 -39 94 l-32 100 -50 0 c-27 0 -49 -2 -49 -4z"/>
</g>
</svg>
